<svg width="1649" height="264" viewBox="0 0 1649 264" fill="none" xmlns="http://www.w3.org/2000/svg">
<path fill-rule="evenodd" clip-rule="evenodd" d="M252.45 131.577C252.45 88.6055 264.091 55.9436 287.373 33.5492C310.655 11.1549 345.738 0 392.664 0C439.91 0 475.234 11.1972 498.717 33.5492C522.16 55.9013 533.881 88.6055 533.881 131.577C533.881 219.295 486.795 263.155 392.664 263.155C299.174 263.197 252.45 219.338 252.45 131.577ZM426.342 176.366C433.247 167.112 436.699 152.197 436.699 131.62C436.699 111.38 433.247 96.5492 426.342 87.1266C419.438 77.7041 408.198 73.014 392.664 73.014C377.49 73.014 366.492 77.7464 359.748 87.1266C353.004 96.5492 349.632 111.38 349.632 131.62C349.632 152.239 353.004 167.155 359.748 176.366C366.492 185.619 377.45 190.225 392.664 190.225C408.198 190.225 419.398 185.577 426.342 176.366ZM37.211 229.905C12.4036 207.722 0 174.933 0 131.623C0 88.3133 12.6445 55.5246 37.9737 33.3415C63.2628 11.1584 97.8647 0.0457529 141.739 0.0457529C159.963 0.0457529 176.06 1.35561 190.069 4.05984C204.079 6.72181 217.486 11.2429 230.291 17.6654V87.933C210.381 78.0034 187.781 73.0175 162.492 73.0175C140.214 73.0175 123.756 77.4541 113.159 86.3273C102.521 95.2006 97.2224 110.285 97.2224 131.623C97.2224 152.243 102.441 167.158 112.918 176.37C123.354 185.623 139.893 190.229 162.532 190.229C186.497 190.229 209.257 184.355 230.853 172.651V246.172C206.889 257.538 177.024 263.2 141.258 263.2C96.6605 263.2 62.0184 252.088 37.211 229.905ZM645.104 5.32393H556.03V257.873H651.165V92.1971C656.263 86.8731 662.485 82.5211 669.911 79.1408C677.338 75.7605 684.603 74.0704 691.668 74.0704C703.149 74.0704 711.337 76.521 716.235 81.507C721.132 86.4929 723.581 94.6478 723.581 106.014V257.873H818.715V95.9154C818.715 63.2112 811.811 39.0845 797.962 23.4507C784.114 7.81689 762.196 0 732.171 0C715.954 0 700.258 2.32394 685.085 6.92957C669.911 11.5352 657.427 17.4084 647.633 24.507L645.104 5.32393ZM818.974 5.32684H918.163L963.723 153.425L1009.28 5.32684H1108.47L1013.82 257.876H913.587L818.974 5.32684ZM1096.5 132.127C1096.5 174.422 1109.87 213.591 1138.45 236.155C1167.03 258.718 1206.17 263.197 1253.97 263.239C1289.5 263.239 1321.01 259.859 1344.65 253.098V191.704C1340.63 192.602 1333.53 193.744 1328.14 194.611C1327.18 194.764 1326.28 194.909 1325.47 195.042C1309.97 197.535 1294.72 198.76 1279.78 198.76C1254.78 198.76 1235.23 195.845 1221.22 189.972C1207.21 184.098 1201.51 174.591 1197.01 161.451H1377.93V117.211C1377.93 80.9999 1365.57 52.3943 1340.92 31.4366C1316.23 10.4789 1282.43 0 1239.44 0C1192.72 0 1155.71 10.0986 1131.42 33.5493C1107.14 56.9999 1096.5 90.9295 1096.5 132.127ZM1236.79 67.6901C1264.29 67.6901 1277.98 94.6055 1277.98 107.113H1195.61C1195.61 94.183 1211.99 67.6901 1236.79 67.6901ZM1452.63 129.468L1363.55 5.32684H1466.8L1649 257.876H1544.75L1504.25 201.383L1463.75 257.876H1359.98L1452.63 129.468ZM1645.22 5.32684H1542.45L1514.16 45.0451L1566.34 115.904L1645.22 5.32684Z" fill="white"/>
</svg>
